<svg xmlns="http://www.w3.org/2000/svg" xmlns:xlink="http://www.w3.org/1999/xlink" width="202" height="199" viewBox="0 0 202 199"><defs><linearGradient id="gradient_0" gradientUnits="userSpaceOnUse" x1="37.536091" y1="185.67601" x2="89.607712" y2="2.0161982"><stop offset="0" stop-color="#466E45"/><stop offset="1" stop-color="#86A24D"/></linearGradient></defs><path fill="url(#gradient_0)" d="M98.6685 3.85669C100.296 4.54756 110.26 16.4268 111.483 18.4672C109.972 20.7253 100.93 32.4481 98.9068 33.1458C98.2019 32.3015 98.6609 30.8468 98.8566 29.8357C94.9928 30.122 92.42 30.0342 88.3836 30.726C71.5937 33.6034 58.6253 42.2097 46.2293 53.3506C47.2142 53.2444 48.0372 53.217 49.0226 53.2118L71.5546 53.1996C79.8669 53.1976 90.6858 52.7072 98.4989 54.949C103.772 56.4524 108.572 59.2807 112.442 63.1645C119.182 69.8671 122.686 79.1817 122.665 88.6344C122.714 97.818 119.061 106.634 112.533 113.093C105.432 120.143 97.8658 122.53 88.1767 122.869C80.6594 123.132 73.042 122.999 65.5267 122.985C65.8793 125.372 65.7304 133.438 65.7344 136.209L65.7627 162.625L65.7684 194.405C51.0725 188.276 39.0227 180.391 28.4801 168.409C11.5549 149.23 3.32532 124.549 5.30902 99.2103C8.73226 55.4843 43.2298 18.2133 86.7421 12.1475C90.4274 11.6338 95.1224 10.7889 98.813 11.0268C98.804 8.77888 98.489 5.99048 98.6685 3.85669ZM42.8313 155.735C44.156 157.119 45.1221 158.346 46.2575 159.894L46.0727 98.6635L46.0666 81.2234C46.0676 79.2838 45.958 74.0887 46.1813 72.3815C43.2204 72.4046 34.985 72.4669 32.259 72.1344C31.6066 74.5251 30.3324 77.282 29.3992 79.6121C20.221 102.528 23.2242 129.881 37.9474 149.836C39.3653 151.757 41.1023 154.06 42.8313 155.735ZM65.4247 72.488C65.8009 75.1963 65.6446 80.736 65.6428 83.6511C65.6036 90.4308 65.6416 97.2108 65.7567 103.99C72.8142 104.039 89.1351 104.873 94.686 102.5C98.5736 100.488 101.189 97.7361 102.553 93.4956C103.936 89.2388 103.556 84.6051 101.497 80.6307C96.6117 71.1594 86.7599 72.3916 77.7182 72.3124C76.2385 72.2994 74.7267 72.3344 73.2472 72.3682C70.7017 72.4105 67.9535 72.5096 65.4247 72.488Z"/><defs><linearGradient id="gradient_1" gradientUnits="userSpaceOnUse" x1="156.80264" y1="178.6073" x2="124.04133" y2="11.521338"><stop offset="0" stop-color="#B0843F"/><stop offset="1" stop-color="#E4C672"/></linearGradient></defs><path fill="url(#gradient_1)" d="M115.573 12.3475C136.493 15.3568 155.796 25.3089 170.381 40.606C203.657 75.1322 207.018 127.272 177.006 165.07C173.273 169.772 169.052 174.028 164.73 178.185C159.494 168.774 154.404 158.002 149.609 148.317C147.923 144.911 144.636 138.881 143.414 135.63C142.225 138.793 138.243 146.185 136.535 149.565L123.473 175.476C121.886 178.575 120.026 181.542 118.516 184.631C113.896 175.568 109.237 166.751 104.654 157.584C99.9613 147.967 95.0199 138.497 90.2552 128.917C98.7168 128.071 101.844 127.346 109.631 124.071C110.333 126.341 111.542 128.215 112.532 130.311C114.395 134.255 116.953 138.661 118.55 142.66C119.865 139.041 142.618 95.7028 143.427 95.1113C143.893 95.3868 167.412 139.372 168.59 143.035C169.124 141.241 171.064 137.458 171.964 135.523C174.449 130.182 175.999 125.65 176.982 119.836C180.358 99.8292 175.674 79.2995 163.957 62.7353C150.695 44.1542 131.648 33.8241 109.395 30.0963C113.597 25.7108 115.119 23.0598 118.738 18.3449C116.96 16.2359 116.318 14.9649 115.573 12.3475Z"/></svg>